<mxfile host="app.diagrams.net" agent="Mozilla/5.0 (X11; Ubuntu; Linux x86_64; rv:134.0) Gecko/20100101 Firefox/134.0" version="26.0.9">
  <diagram name="Page-1" id="PjqkCXJDa6QP-Z5-mkrk">
    <mxGraphModel dx="1044" dy="2015" grid="1" gridSize="10" guides="1" tooltips="1" connect="1" arrows="1" fold="1" page="1" pageScale="1" pageWidth="850" pageHeight="1100" math="0" shadow="0">
      <root>
        <mxCell id="0" />
        <mxCell id="1" parent="0" />
        <mxCell id="trHLj9ciciMBN7u2gDlx-35" style="edgeStyle=orthogonalEdgeStyle;rounded=0;orthogonalLoop=1;jettySize=auto;html=1;" edge="1" parent="1" source="trHLj9ciciMBN7u2gDlx-1">
          <mxGeometry relative="1" as="geometry">
            <mxPoint x="430" y="-100" as="targetPoint" />
          </mxGeometry>
        </mxCell>
        <mxCell id="trHLj9ciciMBN7u2gDlx-1" value="START" style="ellipse;whiteSpace=wrap;html=1;" vertex="1" parent="1">
          <mxGeometry x="370" y="-210" width="120" height="80" as="geometry" />
        </mxCell>
        <mxCell id="trHLj9ciciMBN7u2gDlx-5" style="edgeStyle=orthogonalEdgeStyle;rounded=0;orthogonalLoop=1;jettySize=auto;html=1;" edge="1" parent="1" source="trHLj9ciciMBN7u2gDlx-2">
          <mxGeometry relative="1" as="geometry">
            <mxPoint x="425" y="230" as="targetPoint" />
          </mxGeometry>
        </mxCell>
        <mxCell id="trHLj9ciciMBN7u2gDlx-2" value="Read x" style="shape=parallelogram;perimeter=parallelogramPerimeter;whiteSpace=wrap;html=1;fixedSize=1;" vertex="1" parent="1">
          <mxGeometry x="365" y="130" width="120" height="60" as="geometry" />
        </mxCell>
        <mxCell id="trHLj9ciciMBN7u2gDlx-6" style="edgeStyle=orthogonalEdgeStyle;rounded=0;orthogonalLoop=1;jettySize=auto;html=1;" edge="1" parent="1" source="trHLj9ciciMBN7u2gDlx-4">
          <mxGeometry relative="1" as="geometry">
            <mxPoint x="520" y="280" as="targetPoint" />
          </mxGeometry>
        </mxCell>
        <mxCell id="trHLj9ciciMBN7u2gDlx-7" value="FALSE" style="edgeLabel;html=1;align=center;verticalAlign=middle;resizable=0;points=[];" vertex="1" connectable="0" parent="trHLj9ciciMBN7u2gDlx-6">
          <mxGeometry x="-0.2397" y="1" relative="1" as="geometry">
            <mxPoint as="offset" />
          </mxGeometry>
        </mxCell>
        <mxCell id="trHLj9ciciMBN7u2gDlx-12" style="edgeStyle=orthogonalEdgeStyle;rounded=0;orthogonalLoop=1;jettySize=auto;html=1;entryX=0.5;entryY=0;entryDx=0;entryDy=0;" edge="1" parent="1" source="trHLj9ciciMBN7u2gDlx-4">
          <mxGeometry relative="1" as="geometry">
            <mxPoint x="420" y="380" as="targetPoint" />
          </mxGeometry>
        </mxCell>
        <mxCell id="trHLj9ciciMBN7u2gDlx-13" value="TRUE" style="edgeLabel;html=1;align=center;verticalAlign=middle;resizable=0;points=[];" vertex="1" connectable="0" parent="trHLj9ciciMBN7u2gDlx-12">
          <mxGeometry y="-3" relative="1" as="geometry">
            <mxPoint as="offset" />
          </mxGeometry>
        </mxCell>
        <mxCell id="trHLj9ciciMBN7u2gDlx-4" value="x &amp;gt; 0" style="rhombus;whiteSpace=wrap;html=1;" vertex="1" parent="1">
          <mxGeometry x="380" y="240" width="80" height="80" as="geometry" />
        </mxCell>
        <mxCell id="trHLj9ciciMBN7u2gDlx-8" value="END" style="ellipse;whiteSpace=wrap;html=1;" vertex="1" parent="1">
          <mxGeometry x="690" y="330" width="120" height="80" as="geometry" />
        </mxCell>
        <mxCell id="trHLj9ciciMBN7u2gDlx-10" style="edgeStyle=orthogonalEdgeStyle;rounded=0;orthogonalLoop=1;jettySize=auto;html=1;" edge="1" parent="1" source="trHLj9ciciMBN7u2gDlx-9">
          <mxGeometry relative="1" as="geometry">
            <mxPoint x="760" y="320" as="targetPoint" />
          </mxGeometry>
        </mxCell>
        <mxCell id="trHLj9ciciMBN7u2gDlx-9" value="Write &quot;errore&quot;" style="shape=parallelogram;perimeter=parallelogramPerimeter;whiteSpace=wrap;html=1;fixedSize=1;" vertex="1" parent="1">
          <mxGeometry x="530" y="250" width="120" height="60" as="geometry" />
        </mxCell>
        <mxCell id="trHLj9ciciMBN7u2gDlx-16" style="edgeStyle=orthogonalEdgeStyle;rounded=0;orthogonalLoop=1;jettySize=auto;html=1;entryX=0.5;entryY=0;entryDx=0;entryDy=0;" edge="1" parent="1" source="trHLj9ciciMBN7u2gDlx-14" target="trHLj9ciciMBN7u2gDlx-15">
          <mxGeometry relative="1" as="geometry" />
        </mxCell>
        <mxCell id="trHLj9ciciMBN7u2gDlx-14" value="i = 0" style="rounded=0;whiteSpace=wrap;html=1;" vertex="1" parent="1">
          <mxGeometry x="360" y="390" width="120" height="60" as="geometry" />
        </mxCell>
        <mxCell id="trHLj9ciciMBN7u2gDlx-17" style="edgeStyle=orthogonalEdgeStyle;rounded=0;orthogonalLoop=1;jettySize=auto;html=1;" edge="1" parent="1" source="trHLj9ciciMBN7u2gDlx-15">
          <mxGeometry relative="1" as="geometry">
            <mxPoint x="420" y="670" as="targetPoint" />
          </mxGeometry>
        </mxCell>
        <mxCell id="trHLj9ciciMBN7u2gDlx-18" value="TRUE" style="edgeLabel;html=1;align=center;verticalAlign=middle;resizable=0;points=[];" vertex="1" connectable="0" parent="trHLj9ciciMBN7u2gDlx-17">
          <mxGeometry x="-0.205" y="-3" relative="1" as="geometry">
            <mxPoint as="offset" />
          </mxGeometry>
        </mxCell>
        <mxCell id="trHLj9ciciMBN7u2gDlx-15" value="i &amp;lt; 10" style="rhombus;whiteSpace=wrap;html=1;" vertex="1" parent="1">
          <mxGeometry x="350" y="510" width="140" height="80" as="geometry" />
        </mxCell>
        <mxCell id="trHLj9ciciMBN7u2gDlx-25" style="edgeStyle=orthogonalEdgeStyle;rounded=0;orthogonalLoop=1;jettySize=auto;html=1;" edge="1" parent="1" source="trHLj9ciciMBN7u2gDlx-22">
          <mxGeometry relative="1" as="geometry">
            <mxPoint x="420" y="950" as="targetPoint" />
          </mxGeometry>
        </mxCell>
        <mxCell id="trHLj9ciciMBN7u2gDlx-28" value="TRUE" style="edgeLabel;html=1;align=center;verticalAlign=middle;resizable=0;points=[];" vertex="1" connectable="0" parent="trHLj9ciciMBN7u2gDlx-25">
          <mxGeometry x="-0.3087" y="-4" relative="1" as="geometry">
            <mxPoint as="offset" />
          </mxGeometry>
        </mxCell>
        <mxCell id="trHLj9ciciMBN7u2gDlx-51" style="edgeStyle=orthogonalEdgeStyle;rounded=0;orthogonalLoop=1;jettySize=auto;html=1;entryX=1;entryY=0.5;entryDx=0;entryDy=0;" edge="1" parent="1" source="trHLj9ciciMBN7u2gDlx-22" target="trHLj9ciciMBN7u2gDlx-47">
          <mxGeometry relative="1" as="geometry">
            <mxPoint x="290" y="880" as="targetPoint" />
          </mxGeometry>
        </mxCell>
        <mxCell id="trHLj9ciciMBN7u2gDlx-52" value="FALSE" style="edgeLabel;html=1;align=center;verticalAlign=middle;resizable=0;points=[];" vertex="1" connectable="0" parent="trHLj9ciciMBN7u2gDlx-51">
          <mxGeometry x="0.5028" relative="1" as="geometry">
            <mxPoint as="offset" />
          </mxGeometry>
        </mxCell>
        <mxCell id="trHLj9ciciMBN7u2gDlx-22" value="x % 2 == 0" style="rhombus;whiteSpace=wrap;html=1;" vertex="1" parent="1">
          <mxGeometry x="380" y="840" width="80" height="80" as="geometry" />
        </mxCell>
        <mxCell id="trHLj9ciciMBN7u2gDlx-41" style="edgeStyle=orthogonalEdgeStyle;rounded=0;orthogonalLoop=1;jettySize=auto;html=1;" edge="1" parent="1" source="trHLj9ciciMBN7u2gDlx-30" target="trHLj9ciciMBN7u2gDlx-40">
          <mxGeometry relative="1" as="geometry" />
        </mxCell>
        <mxCell id="trHLj9ciciMBN7u2gDlx-30" value="Read n" style="shape=parallelogram;perimeter=parallelogramPerimeter;whiteSpace=wrap;html=1;fixedSize=1;" vertex="1" parent="1">
          <mxGeometry x="365" y="670" width="120" height="60" as="geometry" />
        </mxCell>
        <mxCell id="trHLj9ciciMBN7u2gDlx-38" style="edgeStyle=orthogonalEdgeStyle;rounded=0;orthogonalLoop=1;jettySize=auto;html=1;entryX=0.5;entryY=0;entryDx=0;entryDy=0;" edge="1" parent="1" source="trHLj9ciciMBN7u2gDlx-31" target="trHLj9ciciMBN7u2gDlx-32">
          <mxGeometry relative="1" as="geometry" />
        </mxCell>
        <mxCell id="trHLj9ciciMBN7u2gDlx-39" value="TRUE" style="edgeLabel;html=1;align=center;verticalAlign=middle;resizable=0;points=[];" vertex="1" connectable="0" parent="trHLj9ciciMBN7u2gDlx-38">
          <mxGeometry x="-0.3818" y="7" relative="1" as="geometry">
            <mxPoint as="offset" />
          </mxGeometry>
        </mxCell>
        <mxCell id="trHLj9ciciMBN7u2gDlx-44" style="edgeStyle=orthogonalEdgeStyle;rounded=0;orthogonalLoop=1;jettySize=auto;html=1;" edge="1" parent="1" source="trHLj9ciciMBN7u2gDlx-31" target="trHLj9ciciMBN7u2gDlx-45">
          <mxGeometry relative="1" as="geometry">
            <mxPoint x="570" y="1010" as="targetPoint" />
          </mxGeometry>
        </mxCell>
        <mxCell id="trHLj9ciciMBN7u2gDlx-46" value="FALSE" style="edgeLabel;html=1;align=center;verticalAlign=middle;resizable=0;points=[];" vertex="1" connectable="0" parent="trHLj9ciciMBN7u2gDlx-44">
          <mxGeometry x="-0.6" y="2" relative="1" as="geometry">
            <mxPoint as="offset" />
          </mxGeometry>
        </mxCell>
        <mxCell id="trHLj9ciciMBN7u2gDlx-31" value="n &amp;gt; x / 2" style="rhombus;whiteSpace=wrap;html=1;" vertex="1" parent="1">
          <mxGeometry x="380" y="970" width="80" height="80" as="geometry" />
        </mxCell>
        <mxCell id="trHLj9ciciMBN7u2gDlx-43" style="edgeStyle=orthogonalEdgeStyle;rounded=0;orthogonalLoop=1;jettySize=auto;html=1;" edge="1" parent="1" source="trHLj9ciciMBN7u2gDlx-32" target="trHLj9ciciMBN7u2gDlx-30">
          <mxGeometry relative="1" as="geometry">
            <mxPoint x="600" y="680" as="targetPoint" />
            <Array as="points">
              <mxPoint x="601" y="1130" />
              <mxPoint x="601" y="700" />
            </Array>
          </mxGeometry>
        </mxCell>
        <mxCell id="trHLj9ciciMBN7u2gDlx-32" value="somma1 += n" style="rounded=0;whiteSpace=wrap;html=1;" vertex="1" parent="1">
          <mxGeometry x="360" y="1100" width="120" height="60" as="geometry" />
        </mxCell>
        <mxCell id="trHLj9ciciMBN7u2gDlx-37" style="edgeStyle=orthogonalEdgeStyle;rounded=0;orthogonalLoop=1;jettySize=auto;html=1;" edge="1" parent="1" source="trHLj9ciciMBN7u2gDlx-33">
          <mxGeometry relative="1" as="geometry">
            <mxPoint x="425" y="120" as="targetPoint" />
          </mxGeometry>
        </mxCell>
        <mxCell id="trHLj9ciciMBN7u2gDlx-33" value="somma2 = 0" style="rounded=0;whiteSpace=wrap;html=1;" vertex="1" parent="1">
          <mxGeometry x="365" y="20" width="120" height="60" as="geometry" />
        </mxCell>
        <mxCell id="trHLj9ciciMBN7u2gDlx-34" value="somma1 = 0" style="rounded=0;whiteSpace=wrap;html=1;" vertex="1" parent="1">
          <mxGeometry x="360" y="-80" width="120" height="60" as="geometry" />
        </mxCell>
        <mxCell id="trHLj9ciciMBN7u2gDlx-36" style="edgeStyle=orthogonalEdgeStyle;rounded=0;orthogonalLoop=1;jettySize=auto;html=1;entryX=0.442;entryY=0.083;entryDx=0;entryDy=0;entryPerimeter=0;" edge="1" parent="1" source="trHLj9ciciMBN7u2gDlx-34" target="trHLj9ciciMBN7u2gDlx-33">
          <mxGeometry relative="1" as="geometry" />
        </mxCell>
        <mxCell id="trHLj9ciciMBN7u2gDlx-42" style="edgeStyle=orthogonalEdgeStyle;rounded=0;orthogonalLoop=1;jettySize=auto;html=1;entryX=0.5;entryY=0;entryDx=0;entryDy=0;" edge="1" parent="1" source="trHLj9ciciMBN7u2gDlx-40" target="trHLj9ciciMBN7u2gDlx-22">
          <mxGeometry relative="1" as="geometry" />
        </mxCell>
        <mxCell id="trHLj9ciciMBN7u2gDlx-40" value="n + 1" style="rounded=0;whiteSpace=wrap;html=1;" vertex="1" parent="1">
          <mxGeometry x="365" y="750" width="120" height="60" as="geometry" />
        </mxCell>
        <mxCell id="trHLj9ciciMBN7u2gDlx-45" value="" style="ellipse;whiteSpace=wrap;html=1;aspect=fixed;" vertex="1" parent="1">
          <mxGeometry x="580" y="980" width="20" height="20" as="geometry" />
        </mxCell>
        <mxCell id="trHLj9ciciMBN7u2gDlx-49" style="edgeStyle=orthogonalEdgeStyle;rounded=0;orthogonalLoop=1;jettySize=auto;html=1;entryX=0.5;entryY=0;entryDx=0;entryDy=0;" edge="1" parent="1" source="trHLj9ciciMBN7u2gDlx-47" target="trHLj9ciciMBN7u2gDlx-48">
          <mxGeometry relative="1" as="geometry" />
        </mxCell>
        <mxCell id="trHLj9ciciMBN7u2gDlx-50" value="TRUE" style="edgeLabel;html=1;align=center;verticalAlign=middle;resizable=0;points=[];" vertex="1" connectable="0" parent="trHLj9ciciMBN7u2gDlx-49">
          <mxGeometry y="-4" relative="1" as="geometry">
            <mxPoint as="offset" />
          </mxGeometry>
        </mxCell>
        <mxCell id="trHLj9ciciMBN7u2gDlx-53" style="edgeStyle=orthogonalEdgeStyle;rounded=0;orthogonalLoop=1;jettySize=auto;html=1;exitX=0.5;exitY=0;exitDx=0;exitDy=0;entryX=0;entryY=0.25;entryDx=0;entryDy=0;" edge="1" parent="1" source="trHLj9ciciMBN7u2gDlx-47" target="trHLj9ciciMBN7u2gDlx-30">
          <mxGeometry relative="1" as="geometry">
            <mxPoint x="240" y="690" as="targetPoint" />
            <Array as="points">
              <mxPoint x="240" y="765" />
              <mxPoint x="241" y="765" />
              <mxPoint x="241" y="689" />
            </Array>
          </mxGeometry>
        </mxCell>
        <mxCell id="trHLj9ciciMBN7u2gDlx-54" value="FALSE" style="edgeLabel;html=1;align=center;verticalAlign=middle;resizable=0;points=[];" vertex="1" connectable="0" parent="trHLj9ciciMBN7u2gDlx-53">
          <mxGeometry x="0.2365" y="-1" relative="1" as="geometry">
            <mxPoint x="-1" as="offset" />
          </mxGeometry>
        </mxCell>
        <mxCell id="trHLj9ciciMBN7u2gDlx-47" value="n &amp;lt; x /2" style="rhombus;whiteSpace=wrap;html=1;" vertex="1" parent="1">
          <mxGeometry x="200" y="840" width="80" height="80" as="geometry" />
        </mxCell>
        <mxCell id="trHLj9ciciMBN7u2gDlx-48" value="somma2 += n" style="rounded=0;whiteSpace=wrap;html=1;" vertex="1" parent="1">
          <mxGeometry x="170" y="970" width="120" height="60" as="geometry" />
        </mxCell>
      </root>
    </mxGraphModel>
  </diagram>
</mxfile>
